<svg width="37" height="9" viewBox="0 0 37 9" fill="none" xmlns="http://www.w3.org/2000/svg">
<path d="M36.1285 3.14812C33.136 2.09497 30.1262 1.21377 26.915 0.134524C26.0576 -0.141812 25.7527 0.691875 26.3743 1.11407C27.8533 1.81261 29.3496 2.33919 30.8286 3.03773C-10.5281 2.0022 -10.4077 5.53555 33.3838 4.03868C33.3838 4.03868 33.6024 4.06478 33.5852 4.23674C29.9485 5.19487 26.5306 6.1791 22.8939 7.13723C22.2035 7.40286 22.7733 8.34093 23.4638 8.0753C27.3363 6.9713 31.4276 5.8934 35.3001 4.78941C35.7547 4.66964 35.7892 4.32572 35.5877 4.12767C35.5877 4.12767 35.5877 4.12767 35.8064 4.15376C36.6983 4.08619 36.7673 3.39836 36.1285 3.14812Z" fill="white"/>
</svg>
