<?xml version="1.0" standalone="no"?>
<!DOCTYPE svg PUBLIC "-//W3C//DTD SVG 20010904//EN"
 "http://www.w3.org/TR/2001/REC-SVG-20010904/DTD/svg10.dtd">
<svg version="1.0" xmlns="http://www.w3.org/2000/svg"
 width="643.000000pt" height="643.000000pt" viewBox="0 0 643.000000 643.000000"
 preserveAspectRatio="xMidYMid meet">
<metadata>
Created by potrace 1.11, written by Peter Selinger 2001-2013
</metadata>
<g transform="translate(0.000000,643.000000) scale(0.100000,-0.100000)"
fill="#000000" stroke="none">
<path d="M3415 5008 c4 -310 8 -682 10 -828 1 -146 3 -363 4 -482 1 -179 3
-218 15 -218 8 0 103 44 212 97 110 54 201 98 204 98 3 1 64 30 135 64 72 35
193 94 270 131 176 85 342 164 515 247 74 36 160 77 191 93 32 16 60 26 63 23
3 -4 6 -1 6 5 0 7 4 12 9 12 11 0 254 117 264 126 12 13 -175 333 -212 364 -3
3 -18 21 -33 40 -123 163 -348 360 -553 487 -80 49 -328 168 -370 177 -5 2
-49 15 -97 30 -48 15 -95 29 -105 31 -57 13 -164 35 -203 40 -85 12 -105 14
-218 20 l-113 5 6 -562z"/>
<path d="M3078 5055 c-2 -2 -44 -6 -94 -9 -133 -9 -265 -32 -409 -70 -97 -26
-193 -60 -270 -96 -134 -62 -167 -79 -235 -120 -76 -45 -241 -163 -294 -209
-99 -88 -221 -218 -297 -316 -202 -264 -362 -633 -405 -935 -2 -19 -6 -42 -9
-50 -17 -62 -24 -366 -12 -495 12 -124 15 -143 41 -263 28 -128 126 -408 149
-423 5 -3 8 -9 8 -13 -2 -7 59 -135 72 -151 4 -5 30 -46 58 -90 101 -157 273
-353 394 -448 15 -12 38 -31 50 -42 11 -11 28 -24 37 -30 8 -5 55 -37 104 -70
50 -33 98 -66 109 -72 26 -16 210 -108 255 -127 50 -21 134 -54 140 -54 3 0
12 -3 20 -6 32 -11 126 -38 150 -43 14 -3 30 -6 35 -7 86 -20 128 -27 132 -22
4 3 11 2 17 -3 18 -15 152 -25 321 -24 179 1 173 0 310 20 177 26 385 87 542
159 40 19 75 34 77 34 2 0 34 18 70 40 36 22 68 40 71 40 17 0 265 183 273
203 2 4 8 7 13 7 5 0 50 42 100 93 127 128 232 259 305 381 16 27 37 60 46 75
10 14 21 33 24 41 4 8 26 56 49 105 86 182 151 399 181 601 15 101 27 458 16
478 -2 4 -6 29 -8 55 -11 144 -76 403 -136 541 -50 116 -52 120 -73 113 -11
-3 -45 -18 -75 -33 -131 -66 -236 -115 -242 -112 -5 1 -8 -2 -8 -8 0 -5 -5
-10 -10 -10 -6 0 -83 -35 -173 -79 -89 -43 -207 -100 -262 -126 -278 -132
-553 -264 -720 -345 -235 -114 -353 -169 -365 -172 -14 -3 -13 -16 -25 1027
-6 554 -6 625 1 636 2 4 1 10 -3 12 -5 3 -8 95 -8 206 0 179 -2 200 -17 204
-9 3 -18 3 -20 2z"/>
</g>
</svg>
